:SAMPLES-PER-SECOND 30
:FULLY-SPECIFIED
:DEGREES
93
root  24.8276 37.4511 -4.70381 -125.155 -81.3346 123.41
RightUpLeg  -14.4037 -1.50969 -10.9494
RightLeg  68.1848 0.952026 1.81098
RightFoot  6.613 -1.67305 10.9013
RightToes  -1.16417e-010 0 -3.6325e-017
Spine  15.1 3.17671 0.40269
Spine1  4.19606 5.87453 -11.2895
HEad  -24.6161 0.914835 -3.15836
LeftShoulder1  8.96262 -12.3718 -49.2835
LeftArm  -12.9711 34.1533 -24.5932
LeftForeArm  145.096 -77.4702 -131.56
LeftHand  -0.244104 0.0205437 5.32207
RightShoulder  7.09951 10.7811 43.3282
RightArm  8.99945 -15.724 31.9105
RightForeArm  67.1272 79.1594 72.1106
RightHand  -0.00353655 -5.58568 -10.3975
LeftUpLeg  -18.7754 8.51809 -13.2404
LeftLeg  37.0176 7.86772 6.67703
LeftFoot  -17.8524 0.394015 5.16118
LeftToes  -1.16419e-010 -9.34044e-011 -2.32061e-011
94
root  23.2341 37.2583 -4.70921 -118.514 -81.4951 116.325
RightUpLeg  -20.774 -1.41371 -11.6684
RightLeg  77.013 0.187005 -0.428176
RightFoot  9.09708 -1.45374 8.33963
RightToes  -1.16417e-010 0 -3.6325e-017
Spine  15.7309 2.49936 -2.51215
Spine1  4.64587 4.12267 -8.38384
HEad  -25.9323 1.85001 -4.24119
LeftShoulder1  9.14878 -12.3967 -50.2255
LeftArm  -9.2226 27.8236 -22.2602
LeftForeArm  150.395 -76.48 -136.384
LeftHand  -0.244104 0.0205437 5.32207
RightShoulder  7.31305 10.7589 44.7785
RightArm  8.66853 -20.3483 30.0268
RightForeArm  61.6545 78.8336 68.7754
RightHand  -0.0860629 -4.71916 -11.921
LeftUpLeg  -16.1899 9.70156 -13.2447
LeftLeg  38.4988 6.28008 5.73979
LeftFoot  -20.928 0.462552 3.97728
LeftToes  -1.16419e-010 -9.34044e-011 -2.32061e-011
95
root  21.4019 37.6684 -4.64021 -114.435 -83.3472 112.544
RightUpLeg  -25.3995 -2.19284 -10.0202
RightLeg  79.457 -0.246269 -3.36612
RightFoot  6.8285 -0.892702 5.86381
RightToes  -1.16417e-010 0 -3.6325e-017
Spine  14.674 1.1846 -2.66118
Spine1  5.15592 2.11936 -5.38133
HEad  -26.2111 3.33935 -5.40155
LeftShoulder1  9.01112 -12.2927 -49.7946
LeftArm  -5.76646 23.3242 -22.0509
LeftForeArm  157.445 -74.7805 -142.605
LeftHand  -0.244104 0.0205437 5.32207
RightShoulder  7.1341 10.3175 45.0788
RightArm  8.41563 -27.1662 27.9734
RightForeArm  71.1328 79.2489 82.9686
RightHand  -0.1339 -4.33426 -13.5532
LeftUpLeg  -11.3495 9.76246 -11.3809
LeftLeg  34.8637 5.47061 4.44839
LeftFoot  -21.699 0.50566 4.15866
LeftToes  -1.16419e-010 -9.34044e-011 -2.32061e-011
96
root  19.42 38.5337 -4.5234 -127.724 -85.7423 126.412
RightUpLeg  -28.0533 -2.01951 -6.53344
RightLeg  75.7875 -1.05721 -6.00788
RightFoot  3.71885 -0.643603 5.08341
RightToes  -1.16417e-010 0 -3.6325e-017
Spine  13.096 -0.395018 -0.932567
Spine1  4.9186 0.0941772 -2.863
HEad  -25.2264 6.11493 -6.84269
LeftShoulder1  8.67208 -12.0777 -48.582
LeftArm  -3.54963 22.3085 -23.5426
LeftForeArm  164.765 -71.9365 -149.666
LeftHand  -0.244104 0.0205437 5.32207
RightShoulder  6.52831 9.66821 43.1922
RightArm  9.68314 -34.2884 26.4655
RightForeArm  94.9015 78.5806 109.532
RightHand  -0.0314743 -5.29315 -12.977
LeftUpLeg  -5.09115 9.7301 -8.15078
LeftLeg  27.9379 5.43637 3.52648
LeftFoot  -20.1713 0.456849 4.36645
LeftToes  -1.16419e-010 -9.34044e-011 -2.32061e-011
97
root  17.3806 39.6385 -4.45578 -168.611 -86.7127 168.021
RightUpLeg  -28.7149 -0.996249 -2.53562
RightLeg  67.0851 -3.19325 -8.80935
RightFoot  1.81135 -0.598094 5.28862
RightToes  -1.16417e-010 0 -3.6325e-017
Spine  11.6813 -1.81315 1.01117
Spine1  3.89401 -1.73829 -0.680792
HEad  -23.2557 9.62897 -8.27785
LeftShoulder1  8.39265 -11.8494 -47.7066
LeftArm  -1.94041 23.3576 -25.0254
LeftForeArm  169.072 -68.8551 -154.785
LeftHand  -0.244104 0.0205437 5.32207
RightShoulder  5.91772 9.25059 40.2528
RightArm  11.7138 -39.8472 25.3319
RightForeArm  117.154 76.0454 130.535
RightHand  0.131956 -7.38926 -9.61762
LeftUpLeg  1.12147 11.0056 -4.1422
LeftLeg  20.0839 4.55999 1.89752
LeftFoot  -15.0109 0.182956 2.2135
LeftToes  -1.16419e-010 -9.34044e-011 -2.32061e-011
98
root  15.3302 40.7281 -4.46694 161.383 -85.806 -160.878
RightUpLeg  -27.7154 -0.67281 0.599001
RightLeg  54.5644 -6.28704 -9.8708
RightFoot  0.28695 -0.501831 4.92931
RightToes  -1.16417e-010 0 -3.6325e-017
Spine  9.93322 -2.8756 2.3361
Spine1  2.94323 -3.12502 1.10123
HEad  -20.6037 12.3965 -8.92325
LeftShoulder1  8.23373 -11.7352 -47.1431
LeftArm  0.144572 24.0245 -25.9126
LeftForeArm  170.404 -66.9008 -157.168
LeftHand  -0.244104 0.0205437 5.32207
RightShoulder  5.63333 9.31462 37.9126
RightArm  11.9506 -43.9107 25.1395
RightForeArm  130.845 73.192 141.774
RightHand  0.156523 -9.28161 -5.78595
LeftUpLeg  5.57383 11.7734 -0.503545
LeftLeg  13.9568 4.41265 -0.349124
LeftFoot  -6.00194 0.108553 -1.45834
LeftToes  -1.16419e-010 -9.34044e-011 -2.32061e-011
99
root  13.3147 41.4903 -4.50016 157.909 -85.4689 -156.405
RightUpLeg  -25.4989 -1.57628 2.11091
RightLeg  40.1626 -6.79328 -6.54624
RightFoot  -1.27535 -0.410624 4.5792
RightToes  -1.16417e-010 0 -3.6325e-017
Spine  8.02223 -3.50372 3.24017
Spine1  2.6566 -3.84015 1.68315
HEad  -17.9347 13.4246 -8.58868
LeftShoulder1  8.15324 -11.8312 -46.3737
LeftArm  2.66084 23.1799 -26.7359
LeftForeArm  170.875 -66.2346 -157.887
LeftHand  -0.244104 0.0205437 5.32207
RightShoulder  5.59447 9.6382 36.573
RightArm  9.00118 -47.241 27.0057
RightForeArm  137.302 70.6163 147.919
RightHand  0.129315 -10.1549 -4.26266
LeftUpLeg  7.11696 13.5971 1.2873
LeftLeg  13.2865 4.14293 -0.891265
LeftFoot  2.33602 0.424823 -3.7744
LeftToes  -1.16419e-010 -9.34044e-011 -2.32061e-011
100
root  11.3591 41.7764 -4.51336 162.264 -85.8561 -160.907
RightUpLeg  -22.2723 -3.05013 2.40141
RightLeg  27.4515 -2.74024 -1.77378
RightFoot  -1.79744 -0.51087 5.94513
RightToes  -1.16417e-010 0 -3.6325e-017
Spine  7.23812 -3.70881 4.15721
Spine1  2.88977 -3.84588 0.941027
HEad  -16.2771 12.9026 -8.14997
LeftShoulder1  8.18011 -12.0828 -45.7573
LeftArm  4.6763 20.9905 -27.6695
LeftForeArm  171.503 -66.1646 -158.023
LeftHand  -0.244104 0.0205437 5.32207
RightShoulder  5.56814 9.81435 35.8302
RightArm  3.92593 -49.2603 30.8817
RightForeArm  139.666 68.3285 151.726
RightHand  0.173925 -10.2919 -5.23716
LeftUpLeg  6.56801 16.6589 1.44862
LeftLeg  19.8426 2.29376 1.44174
LeftFoot  5.12739 0.631656 -4.60351
LeftToes  -1.16419e-010 -9.34044e-011 -2.32061e-011
101
root  9.47536 41.6012 -4.53639 163.1 -86.3608 -163.01
RightUpLeg  -18.844 -4.91385 2.6669
RightLeg  20.0511 1.33388 0.429588
RightFoot  -1.44721 -0.678261 7.74133
RightToes  -1.16417e-010 0 -3.6325e-017
Spine  7.63642 -3.59185 5.31637
Spine1  3.58582 -3.43108 0.186664
HEad  -15.6526 11.6 -8.309
LeftShoulder1  8.32352 -12.3163 -45.8769
LeftArm  5.7209 18.3404 -28.4932
LeftForeArm  172.334 -66.2738 -158.007
LeftHand  -0.244104 0.0205437 5.32207
RightShoulder  5.45384 9.69406 35.3556
RightArm  -0.777147 -49.0744 34.9507
RightForeArm  141.447 66.6212 154.095
RightHand  0.238026 -10.2947 -6.65241
LeftUpLeg  5.09463 11.9989 0.834089
LeftLeg  30.772 5.25438 3.68034
LeftFoot  3.50245 0.686363 -5.44313
LeftToes  -1.16419e-010 -9.34044e-011 -2.32061e-011
102
root  7.60439 41.0328 -4.62384 156.559 -87.1186 -157.673
RightUpLeg  -16.2655 -7.49844 3.23674
RightLeg  18.693 1.92121 0.717248
RightFoot  -2.01833 -0.544351 6.47551
RightToes  -1.16417e-010 0 -3.6325e-017
Spine  7.65247 -3.26478 6.15476
Spine1  4.60348 -2.94424 0.376081
HEad  -14.8709 10.0754 -8.56423
LeftShoulder1  8.47038 -12.4288 -46.373
LeftArm  6.00676 16.5135 -29.5019
LeftForeArm  173.986 -66.3434 -158.122
LeftHand  -0.244104 0.0205437 5.32207
RightShoulder  5.31154 9.45715 35.0203
RightArm  -3.16341 -47.1879 37.122
RightForeArm  144.033 65.5561 155.568
RightHand  0.258293 -10.7101 -6.64405
LeftUpLeg  2.94369 8.30151 0.994704
LeftLeg  41.98 4.70288 4.87325
LeftFoot  0.964705 0.625916 -5.84509
LeftToes  -1.16419e-010 -9.34044e-011 -2.32061e-011
